<?xml version="1.0" standalone="no"?>
<!DOCTYPE svg PUBLIC "-//W3C//DTD SVG 20010904//EN"
 "http://www.w3.org/TR/2001/REC-SVG-20010904/DTD/svg10.dtd">
<svg version="1.0" xmlns="http://www.w3.org/2000/svg"
 width="78.000000pt" height="97.000000pt" viewBox="0 0 78.000000 97.000000"
 preserveAspectRatio="xMidYMid meet">

<g transform="translate(0.000000,97.000000) scale(0.100000,-0.100000)"
fill="#000000" stroke="none">
<path d="M354 839 c-74 -10 -152 -48 -207 -104 -54 -54 -78 -95 -102 -180 -48
-162 46 -356 207 -431 62 -29 66 -29 263 -32 l200 -3 -145 146 c-80 80 -148
145 -152 145 -5 0 -8 -29 -8 -65 l0 -65 -32 0 c-72 1 -157 77 -179 160 -36
137 68 273 210 273 124 0 221 -99 221 -225 0 -19 -13 -60 -28 -91 l-28 -56 52
-52 c51 -50 54 -52 72 -36 10 10 32 43 48 75 25 49 29 71 32 152 3 77 0 105
-16 148 -64 168 -228 265 -408 241z m198 -41 c63 -29 127 -84 159 -135 26 -42
19 -49 -53 -47 -43 1 -62 7 -97 32 -58 42 -102 55 -170 50 -40 -3 -72 -13
-107 -33 -27 -16 -52 -28 -56 -27 -5 1 -7 -1 -7 -6 3 -18 -2 -22 -20 -12 -13
6 -22 7 -26 0 -4 -6 -15 -6 -32 1 -18 7 -30 6 -41 -3 -13 -11 -14 -9 -7 12 21
69 114 152 199 180 83 27 182 22 258 -12z"/>
</g>
</svg>
